<?xml version="1.0" encoding="iso-8859-1"?>
<!-- Uploaded to: SVG Repo, www.svgrepo.com, Generator: SVG Repo Mixer Tools -->
<svg height="800px" width="800px" version="1.1" id="Layer_1" xmlns="http://www.w3.org/2000/svg" xmlns:xlink="http://www.w3.org/1999/xlink"
	 viewBox="0 0 512 512" xml:space="preserve">
<circle style="fill:#00D2FF;" cx="255.989" cy="255.989" r="210.747"/>
<path style="fill:#18BDF6;" d="M357.728,401.33c-116.392,0-210.747-94.355-210.747-210.747c0-52.385,19.157-100.268,50.79-137.132
	C109.707,78.722,45.242,159.8,45.242,255.989c0,116.392,94.355,210.747,210.747,210.747c64.006,0,121.305-28.572,159.957-73.615
	C397.447,398.428,377.932,401.33,357.728,401.33z"/>
<g>
	<path style="fill:#E4EAF6;" d="M459.445,201.011h-25.034c-2.845,0-5.651,0.662-8.196,1.935l-4.943,2.473
		c-5.881,2.94-12.889,2.505-18.36-1.143l-18.642-12.427h-18.326l18.326-27.489h27.489l18.326,9.163h19.894
		c-13.237-31.095-33.732-58.352-59.356-79.655l-12.83,12.832c-1.719,1.718-2.685,4.049-2.685,6.479v15.439
		c0,5.285-2.099,10.354-5.837,14.09c-2.188,2.188-4.854,3.836-7.79,4.814l-16.76,5.586c-3.743,1.247-6.266,4.749-6.266,8.693v30.047
		l-15.248,22.872c-2.007,3.01-3.079,6.547-3.079,10.165v16.391c0,3.618,1.072,7.155,3.079,10.165l9.808,14.711
		c3.399,5.098,9.121,8.161,15.248,8.161h22.798c7.889,0,14.891,5.048,17.385,12.53l4.045,12.136c0.623,1.868,0.94,3.826,0.94,5.796
		v24.516l21.62,64.86c32.166-37,51.684-85.287,51.684-138.163C466.735,236.962,464.171,218.543,459.445,201.011z"/>
	<path style="fill:#E4EAF6;" d="M288.972,307.297l-11.972-11.974c-1.719-1.718-4.049-2.684-6.479-2.684h-14.531l-33.967-33.968
		c-1.719-1.718-4.049-2.684-6.479-2.684h-42.02l-9.163,27.489v18.326c0,5.768,2.716,11.199,7.33,14.661l21.99,16.493
		c4.615,3.461,7.33,8.893,7.33,14.661v49.428c0,3.618,1.072,7.155,3.079,10.165l15.248,22.873h9.163v-27.489l27.489-27.489
		l7.075-21.224c1.247-3.742,4.749-6.265,8.692-6.265h4.568c4.205,0,7.87-2.862,8.89-6.941l6.169-24.678
		C292.163,312.876,291.247,309.573,288.972,307.297z"/>
</g>
<path style="fill:#C7CFE2;" d="M166.097,278.265l-1.738,5.213v18.326c0,5.768,2.716,11.199,7.33,14.661l21.99,16.493
	c4.615,3.461,7.33,8.893,7.33,14.661v49.428c0,3.618,1.072,7.155,3.079,10.165l15.248,22.873h9.163v-27.489l27.458-27.458
	C216.577,353.374,184.938,319.372,166.097,278.265z"/>
<path style="fill:#E4EAF6;" d="M197.68,92.722l-14.995,7.498v-9.163h-19.898c-4.86,0-9.521,1.931-12.958,5.367l-12.959,12.959
	l-15.515-15.515c-23.988,19.944-43.445,45.125-56.695,73.771l13.056,39.169c2.495,7.483,9.496,12.53,17.385,12.53h5.117
	l9.163,18.326l27.489,5.498V228.5c0-10.122,8.205-18.326,18.326-18.326h14.531c2.43,0,4.76-0.966,6.479-2.684l61.456-61.457h18.326
	v-18.326l-15.885-10.591c-4.457-2.971-3.27-9.818,1.925-11.118l23.123-5.779v-9.163h-60.416
	C202.286,91.056,199.87,91.627,197.68,92.722z"/>
<path style="fill:#C7CFE2;" d="M136.871,243.16V228.5c0-7.578,4.602-14.079,11.16-16.869c-0.687-6.924-1.049-13.943-1.049-21.047
	c0-36.051,9.243-69.866,25.212-99.527h-9.407c-4.86,0-9.521,1.931-12.958,5.367l-12.959,12.959l-15.434-15.434
	c-3.482,2.892-6.91,5.846-10.198,8.953c-0.481,0.455-0.939,0.932-1.416,1.392c-3.178,3.062-6.248,6.237-9.233,9.492
	c-0.788,0.861-1.584,1.713-2.357,2.587c-3.273,3.694-6.446,7.48-9.457,11.399c-0.499,0.648-0.953,1.331-1.443,1.986
	c-2.429,3.237-4.751,6.556-6.995,9.934c-0.98,1.481-1.945,2.976-2.89,4.483c-1.865,2.969-3.64,5.997-5.357,9.062
	c-0.834,1.49-1.697,2.958-2.497,4.472c-1.738,3.286-3.331,6.658-4.896,10.044l13.018,39.055c2.495,7.483,9.496,12.53,17.385,12.53
	h5.117l9.163,18.326L136.871,243.16z"/>
<path d="M255.989,36.652c-120.942,0-219.337,98.395-219.337,219.337s98.395,219.337,219.337,219.337s219.337-98.395,219.337-219.337
	S376.931,36.652,255.989,36.652z M411.758,185.274c4.23,0,7.738-3.06,8.45-7.085l3.133,1.567c3.086,1.543,6.539,2.358,9.988,2.358
	h10.839c1.335,3.391,2.574,6.831,3.729,10.308H434.41c-4.157,0-8.32,0.983-12.037,2.84l-4.945,2.473
	c-3.118,1.558-6.854,1.325-9.755-0.607l-18.64-12.427c-1.411-0.94-3.07-1.443-4.765-1.443h-2.275l6.362-9.544
	c0.32-0.479,0.853-0.764,1.429-0.764h13.381v3.734C403.168,181.428,407.013,185.274,411.758,185.274z M401.919,116.235l-5.399,5.399
	c-3.355,3.355-3.355,8.794,0,12.148c1.677,1.677,3.876,2.516,6.074,2.516s4.397-0.838,6.074-2.516l4.618-4.618
	c8.912,11.031,16.691,23.011,23.155,35.769h-3.114c-0.796,0-1.593-0.189-2.306-0.544l-13.248-6.625
	c-2.61-1.305-5.532-1.994-8.45-1.994h-19.539c-6.333,0-12.212,3.146-15.725,8.415l-12.712,19.074h-8.001
	c-3.474,0-6.299-2.826-6.299-6.299v-15.158c0-0.246,0.157-0.465,0.392-0.543l16.761-5.587c4.178-1.393,8.032-3.775,11.147-6.889
	c5.387-5.387,8.352-12.547,8.352-20.164v-15.439c0-0.15,0.061-0.298,0.167-0.405l6.479-6.479c0.216-0.216,0.418-0.442,0.607-0.676
	C394.737,109.02,398.398,112.559,401.919,116.235z M121.027,105.618c0.189,0.233,0.389,0.458,0.607,0.675l9.163,9.163
	c1.61,1.612,3.796,2.516,6.074,2.516s4.463-0.905,6.074-2.516l12.957-12.959c1.838-1.838,4.284-2.851,6.885-2.851h11.308v0.573
	c0,2.977,1.542,5.742,4.074,7.307c2.532,1.566,5.695,1.708,8.358,0.376l14.993-7.498c0.993-0.496,2.104-0.758,3.215-0.758h30.645
	c-3.351,2.185-5.68,5.67-6.399,9.819c-1.011,5.84,1.424,11.511,6.356,14.799l11.806,7.871c0.159,0.107,0.254,0.284,0.254,0.476v4.26
	c0,0.316-0.257,0.573-0.573,0.573h-3.945c-5.66,0-10.981,2.204-14.984,6.206l-57.766,57.766c-0.107,0.107-0.254,0.167-0.405,0.167
	h-14.528c-14.842,0-26.916,12.074-26.916,26.916v4.183l-9.523-1.905c-2.27-0.454-4.165-1.902-5.2-3.971l-5.656-11.31
	c-1.455-2.911-4.429-4.75-7.683-4.75h-5.117c-4.197,0-7.909-2.676-9.235-6.657l-11.961-35.883
	C85.443,144.371,101.532,123.135,121.027,105.618z M255.989,458.145c-111.469,0-202.156-90.688-202.156-202.157
	c0-22.079,3.57-43.337,10.142-63.242l5.592,16.776c3.649,10.949,13.818,18.324,25.342,18.404l3.281,6.563
	c3.422,6.846,9.69,11.632,17.196,13.135l32.759,6.551c1.842,0.368,3.517,1.264,4.845,2.593c2.665,2.666,5.797,4.698,9.21,6.02
	l-5.99,17.972c-0.292,0.876-0.441,1.792-0.441,2.717v18.326c0,8.426,4.025,16.477,10.766,21.533l21.991,16.493
	c2.438,1.828,3.894,4.74,3.894,7.787v49.429c0,5.333,1.563,10.496,4.521,14.931l13.208,19.813c2.875,4.311,7.683,6.885,12.865,6.885
	h3.194c5.999,0,10.881-4.882,10.881-10.881v-15.709c0-3.824,1.489-7.42,4.193-10.124l16.956-16.956
	c3.44-3.44,6.07-7.697,7.61-12.313l5.365-16.093c0.078-0.235,0.297-0.392,0.543-0.392h4.568c8.162,0,15.245-5.53,17.223-13.448
	l6.17-24.679c1.503-6.014-0.286-12.474-4.671-16.857l-11.974-11.974c-3.352-3.352-7.811-5.2-12.553-5.2h-10.973l-31.452-31.452
	c-3.352-3.352-7.811-5.2-12.553-5.2h-41.819c-0.134-0.003-0.267-0.003-0.401,0h-1.476c-2.532,0-4.915-0.986-6.705-2.778
	c-3.734-3.735-8.446-6.256-13.625-7.291l-6.053-1.211V228.5c0-5.368,4.367-9.736,9.736-9.736h9.736v0.573
	c0,4.744,3.846,8.59,8.59,8.59c4.744,0,8.59-3.846,8.59-8.59v-5.621c0.054-0.053,0.113-0.099,0.167-0.151l57.766-57.766
	c0.757-0.757,1.764-1.174,2.835-1.174h3.945c9.789,0,17.753-7.964,17.753-17.753v-4.26c0-5.95-2.956-11.472-7.905-14.771
	l-7.251-4.835l13.916-3.48c6.125-1.53,10.403-7.008,10.403-13.327c0-7.572-6.161-13.733-13.733-13.733h-55.273
	c-3.764,0-7.533,0.889-10.899,2.572l-5.676,2.838c-2.625-3.295-6.671-5.411-11.202-5.411h-14.172
	c-7.189,0-13.949,2.799-19.033,7.884l-6.884,6.884l-2.568-2.567c33.878-25.617,76.036-40.834,121.686-40.834
	s87.808,15.217,121.684,40.834l-5.958,5.958c-3.354,3.354-5.2,7.811-5.2,12.553v15.439c0,3.028-1.18,5.875-3.32,8.016
	c-1.238,1.238-2.769,2.184-4.431,2.739l-16.761,5.587c-7.26,2.42-12.14,9.188-12.14,16.843v15.157c0,4.328,1.198,8.374,3.249,11.859
	c-3.485,2.346-6.541,5.366-8.946,8.976l-8.108,12.16c-2.958,4.436-4.521,9.599-4.521,14.931v16.391
	c0,5.332,1.563,10.495,4.521,14.931l9.808,14.711c5.004,7.506,13.376,11.986,22.395,11.986h22.798c4.198,0,7.909,2.674,9.235,6.657
	l2.048,6.141c1.657,4.972,2.498,10.151,2.498,15.394v6.485c0,8.567,1.193,17.089,3.548,25.33l14.73,51.559
	C366.227,433.643,313.919,458.145,255.989,458.145z M198.835,326.085l-21.991-16.493c-2.438-1.829-3.894-4.741-3.894-7.788v-16.932
	l6.765-20.292h35.827c0.151,0,0.299,0.061,0.405,0.167l33.968,33.968c1.61,1.612,3.796,2.516,6.074,2.516h14.53
	c0.151,0,0.299,0.061,0.405,0.167l11.974,11.974c0.142,0.142,0.199,0.35,0.151,0.544l-6.17,24.678
	c-0.064,0.255-0.292,0.433-0.555,0.433h-4.568c-7.653,0-14.421,4.878-16.843,12.14l-5.365,16.094
	c-0.699,2.098-1.896,4.033-3.459,5.596l-16.956,16.956c-5.949,5.949-9.225,13.859-9.225,22.272v3.373l-8.674-13.01
	c-1.07-1.603-1.634-3.472-1.634-5.4v-49.428C209.601,339.19,205.577,331.139,198.835,326.085z M416.494,378.739l-11.585-40.547
	c-1.915-6.705-2.887-13.64-2.887-20.611v-6.485c0-7.092-1.137-14.099-3.379-20.827l-2.048-6.141
	c-3.669-11.007-13.93-18.404-25.534-18.404h-22.798c-3.262,0-6.29-1.621-8.1-4.335l-9.808-14.712c-1.07-1.605-1.636-3.472-1.636-5.4
	v-16.391c0-1.929,0.566-3.796,1.636-5.4l8.108-12.161c2.874-4.311,7.683-6.885,12.865-6.885h30.341l16.475,10.983
	c8.016,5.344,18.351,5.988,26.968,1.679l4.944-2.473c1.345-0.672,2.85-1.027,4.354-1.027h18.357
	c3.512,14.901,5.379,30.43,5.379,46.387C458.145,302.119,442.601,344.682,416.494,378.739z"/>
<path d="M75.884,88.096c1.665,1.614,3.837,2.42,6.01,2.42c2.173,0,4.343-0.807,6.01-2.42c0.065-0.063,0.129-0.127,0.192-0.192
	c3.228-3.331,3.228-8.688,0-12.018c-0.031-0.033-0.063-0.065-0.095-0.097c-3.355-3.355-8.858-3.355-12.213,0s-3.355,8.858,0,12.213
	C75.818,88.033,75.852,88.065,75.884,88.096z"/>
<path d="M90.484,45.242c0-4.744-3.846-8.59-8.59-8.59c-24.946,0-45.242,20.296-45.242,45.242c0,4.744,3.846,8.59,8.59,8.59
	s8.59-3.846,8.59-8.59c0-15.473,12.589-28.061,28.061-28.061C86.638,53.832,90.484,49.986,90.484,45.242z"/>
<path d="M90.484,8.59c0-4.744-3.846-8.59-8.59-8.59C36.738,0,0,36.738,0,81.893c0,4.744,3.846,8.59,8.59,8.59s8.59-3.846,8.59-8.59
	c0-35.683,29.03-64.713,64.713-64.713C86.638,17.18,90.484,13.334,90.484,8.59z"/>
<path d="M423.999,436.213c1.677,1.677,3.892,2.516,6.107,2.516s4.429-0.838,6.107-2.516c3.355-3.355,3.355-8.858,0-12.213
	c-0.032-0.032-0.064-0.064-0.097-0.095c-3.331-3.226-8.688-3.226-12.018,0c-0.065,0.063-0.129,0.127-0.192,0.192
	c-3.228,3.331-3.228,8.688,0,12.018C423.935,436.148,423.967,436.18,423.999,436.213z"/>
<path d="M466.758,421.516c-4.744,0-8.59,3.846-8.59,8.59c0,15.473-12.589,28.061-28.061,28.061c-4.744,0-8.59,3.846-8.59,8.59
	c0,4.744,3.846,8.59,8.59,8.59c24.946,0,45.242-20.296,45.242-45.242C475.348,425.361,471.502,421.516,466.758,421.516z"/>
<path d="M503.41,421.516c-4.744,0-8.59,3.846-8.59,8.59c0,35.683-29.03,64.713-64.713,64.713c-4.744,0-8.59,3.846-8.59,8.59
	s3.846,8.59,8.59,8.59C475.262,512,512,475.262,512,430.107C512,425.361,508.154,421.516,503.41,421.516z"/>
<path d="M191.855,136.299c1.291,0,2.601-0.292,3.835-0.908l18.326-9.163c4.244-2.121,5.964-7.281,3.842-11.525
	c-2.121-4.244-7.281-5.965-11.525-3.842l-18.326,9.163c-4.244,2.121-5.964,7.281-3.842,11.525
	C185.67,134.559,188.703,136.299,191.855,136.299z"/>
<path d="M347.618,127.135c4.744,0,8.59-3.846,8.59-8.59v-9.163c0-4.744-3.846-8.59-8.59-8.59s-8.59,3.846-8.59,8.59v9.163
	C339.027,123.289,342.872,127.135,347.618,127.135z"/>
</svg>
